<svg xmlns="http://www.w3.org/2000/svg" xmlns:xlink="http://www.w3.org/1999/xlink" width="17" height="14" viewBox="0 0 17 14">
    <defs>
        <path id="a" d="M.004 13.996V.052h16.958v13.944z"/>
    </defs>
    <g fill="none" fill-rule="evenodd">
        <mask id="b" fill="#fff">
            <use xlink:href="#a"/>
        </mask>
        <path fill="#444" d="M16.962 1.703c-.624.28-1.295.47-1.999.554A3.525 3.525 0 0 0 16.493.31a6.92 6.92 0 0 1-2.21.855 3.457 3.457 0 0 0-2.54-1.112c-1.921 0-3.48 1.576-3.48 3.52 0 .277.031.546.09.803C5.462 4.228 2.898 2.827 1.182.696c-.3.52-.471 1.125-.471 1.77 0 1.222.614 2.3 1.548 2.931a3.435 3.435 0 0 1-1.576-.44V5c0 1.706 1.199 3.13 2.79 3.453a3.446 3.446 0 0 1-1.57.06 3.489 3.489 0 0 0 3.25 2.446A6.93 6.93 0 0 1 0 12.418C1.54 13.418 3.37 14 5.335 14c6.4 0 9.9-5.366 9.9-10.019 0-.153-.003-.304-.01-.455a7.12 7.12 0 0 0 1.737-1.823" mask="url(#b)"/>
    </g>
</svg>
